<mxfile host="65bd71144e">
    <diagram id="gMyu7EZItmNVbCOnokSx" name="Seite-1">
        <mxGraphModel dx="758" dy="518" grid="1" gridSize="10" guides="1" tooltips="1" connect="1" arrows="1" fold="1" page="1" pageScale="1" pageWidth="827" pageHeight="1169" math="0" shadow="0">
            <root>
                <mxCell id="0"/>
                <mxCell id="1" parent="0"/>
                <mxCell id="61" value="Klasse" style="whiteSpace=wrap;html=1;align=center;" parent="1" vertex="1">
                    <mxGeometry x="197" y="40" width="100" height="40" as="geometry"/>
                </mxCell>
                <mxCell id="62" value="SchÃ¼ler" style="whiteSpace=wrap;html=1;align=center;" parent="1" vertex="1">
                    <mxGeometry x="640" y="40" width="100" height="40" as="geometry"/>
                </mxCell>
                <mxCell id="63" value="hat" style="shape=rhombus;perimeter=rhombusPerimeter;whiteSpace=wrap;html=1;align=center;" parent="1" vertex="1">
                    <mxGeometry x="417" y="30" width="120" height="60" as="geometry"/>
                </mxCell>
                <mxCell id="64" value="Leherer" style="whiteSpace=wrap;html=1;align=center;" parent="1" vertex="1">
                    <mxGeometry x="197" y="300" width="100" height="40" as="geometry"/>
                </mxCell>
                <mxCell id="65" value="unterrichtet" style="shape=rhombus;perimeter=rhombusPerimeter;whiteSpace=wrap;html=1;align=center;" parent="1" vertex="1">
                    <mxGeometry x="187" y="180" width="120" height="60" as="geometry"/>
                </mxCell>
                <mxCell id="66" value="Name" style="ellipse;whiteSpace=wrap;html=1;align=center;" parent="1" vertex="1">
                    <mxGeometry x="700" y="150" width="100" height="40" as="geometry"/>
                </mxCell>
                <mxCell id="67" value="Vorname" style="ellipse;whiteSpace=wrap;html=1;align=center;" parent="1" vertex="1">
                    <mxGeometry x="700" y="200" width="100" height="40" as="geometry"/>
                </mxCell>
                <mxCell id="68" value="Name" style="ellipse;whiteSpace=wrap;html=1;align=center;" parent="1" vertex="1">
                    <mxGeometry x="257" y="365" width="100" height="40" as="geometry"/>
                </mxCell>
                <mxCell id="69" value="Vorname" style="ellipse;whiteSpace=wrap;html=1;align=center;" parent="1" vertex="1">
                    <mxGeometry x="257" y="420" width="100" height="40" as="geometry"/>
                </mxCell>
                <mxCell id="70" value="Bezeichnung" style="ellipse;whiteSpace=wrap;html=1;align=center;" parent="1" vertex="1">
                    <mxGeometry x="70" y="40" width="100" height="40" as="geometry"/>
                </mxCell>
                <mxCell id="71" value="" style="endArrow=none;html=1;rounded=0;entryX=0;entryY=0.5;entryDx=0;entryDy=0;edgeStyle=orthogonalEdgeStyle;" parent="1" source="63" target="62" edge="1">
                    <mxGeometry relative="1" as="geometry">
                        <mxPoint x="537" y="60" as="sourcePoint"/>
                        <mxPoint x="697" y="60" as="targetPoint"/>
                    </mxGeometry>
                </mxCell>
                <mxCell id="73" value="n" style="resizable=0;html=1;align=right;verticalAlign=bottom;" parent="71" connectable="0" vertex="1">
                    <mxGeometry x="1" relative="1" as="geometry"/>
                </mxCell>
                <mxCell id="74" value="" style="endArrow=none;html=1;rounded=0;entryX=0;entryY=0.5;entryDx=0;entryDy=0;edgeStyle=orthogonalEdgeStyle;" parent="1" source="61" target="63" edge="1">
                    <mxGeometry relative="1" as="geometry">
                        <mxPoint x="297" y="60" as="sourcePoint"/>
                        <mxPoint x="457" y="60" as="targetPoint"/>
                    </mxGeometry>
                </mxCell>
                <mxCell id="75" value="1" style="resizable=0;html=1;align=left;verticalAlign=bottom;" parent="74" connectable="0" vertex="1">
                    <mxGeometry x="-1" relative="1" as="geometry"/>
                </mxCell>
                <mxCell id="80" value="" style="endArrow=none;html=1;rounded=0;entryX=0.5;entryY=0;entryDx=0;entryDy=0;edgeStyle=orthogonalEdgeStyle;" parent="1" source="61" target="65" edge="1">
                    <mxGeometry relative="1" as="geometry">
                        <mxPoint x="247" y="80" as="sourcePoint"/>
                        <mxPoint x="217" y="140" as="targetPoint"/>
                    </mxGeometry>
                </mxCell>
                <mxCell id="81" value="n" style="resizable=0;html=1;align=left;verticalAlign=bottom;" parent="80" connectable="0" vertex="1">
                    <mxGeometry x="-1" relative="1" as="geometry"/>
                </mxCell>
                <mxCell id="83" value="" style="endArrow=none;html=1;rounded=0;entryX=0.5;entryY=0;entryDx=0;entryDy=0;edgeStyle=orthogonalEdgeStyle;" parent="1" source="65" target="64" edge="1">
                    <mxGeometry relative="1" as="geometry">
                        <mxPoint x="247" y="240" as="sourcePoint"/>
                        <mxPoint x="347" y="240" as="targetPoint"/>
                    </mxGeometry>
                </mxCell>
                <mxCell id="85" value="m" style="resizable=0;html=1;align=right;verticalAlign=bottom;" parent="83" connectable="0" vertex="1">
                    <mxGeometry x="1" relative="1" as="geometry"/>
                </mxCell>
                <mxCell id="87" value="" style="endArrow=none;html=1;rounded=0;entryX=0;entryY=0.5;entryDx=0;entryDy=0;edgeStyle=orthogonalEdgeStyle;exitX=1;exitY=0.5;exitDx=0;exitDy=0;" parent="1" source="62" target="66" edge="1">
                    <mxGeometry relative="1" as="geometry">
                        <mxPoint x="690" y="80" as="sourcePoint"/>
                        <mxPoint x="690" y="240" as="targetPoint"/>
                        <Array as="points">
                            <mxPoint x="750" y="60"/>
                            <mxPoint x="750" y="120"/>
                            <mxPoint x="690" y="120"/>
                            <mxPoint x="690" y="170"/>
                        </Array>
                    </mxGeometry>
                </mxCell>
                <mxCell id="89" value="" style="endArrow=none;html=1;rounded=0;entryX=0;entryY=0.5;entryDx=0;entryDy=0;edgeStyle=orthogonalEdgeStyle;exitX=1;exitY=0.5;exitDx=0;exitDy=0;" parent="1" source="62" target="67" edge="1">
                    <mxGeometry relative="1" as="geometry">
                        <mxPoint x="690" y="80" as="sourcePoint"/>
                        <mxPoint x="690" y="240" as="targetPoint"/>
                        <Array as="points">
                            <mxPoint x="750" y="60"/>
                            <mxPoint x="750" y="120"/>
                            <mxPoint x="690" y="120"/>
                            <mxPoint x="690" y="220"/>
                        </Array>
                    </mxGeometry>
                </mxCell>
                <mxCell id="90" value="" style="endArrow=none;html=1;rounded=0;entryX=0;entryY=0.5;entryDx=0;entryDy=0;edgeStyle=orthogonalEdgeStyle;" parent="1" source="64" target="68" edge="1">
                    <mxGeometry relative="1" as="geometry">
                        <mxPoint x="247" y="340" as="sourcePoint"/>
                        <mxPoint x="247" y="500" as="targetPoint"/>
                    </mxGeometry>
                </mxCell>
                <mxCell id="92" value="" style="endArrow=none;html=1;rounded=0;entryX=0;entryY=0.5;entryDx=0;entryDy=0;edgeStyle=orthogonalEdgeStyle;" parent="1" source="64" target="69" edge="1">
                    <mxGeometry relative="1" as="geometry">
                        <mxPoint x="247" y="340" as="sourcePoint"/>
                        <mxPoint x="247" y="500" as="targetPoint"/>
                    </mxGeometry>
                </mxCell>
                <mxCell id="93" value="" style="endArrow=none;html=1;rounded=0;entryX=1;entryY=0.5;entryDx=0;entryDy=0;edgeStyle=orthogonalEdgeStyle;" parent="1" source="61" target="70" edge="1">
                    <mxGeometry relative="1" as="geometry">
                        <mxPoint x="37" y="60" as="sourcePoint"/>
                        <mxPoint x="37" y="60" as="targetPoint"/>
                        <Array as="points">
                            <mxPoint x="180" y="60"/>
                            <mxPoint x="180" y="60"/>
                        </Array>
                    </mxGeometry>
                </mxCell>
                <mxCell id="95" value="ist&lt;br&gt;Klassensprecher" style="shape=rhombus;perimeter=rhombusPerimeter;whiteSpace=wrap;html=1;align=center;" parent="1" vertex="1">
                    <mxGeometry x="500" y="110" width="120" height="60" as="geometry"/>
                </mxCell>
                <mxCell id="102" value="" style="endArrow=none;html=1;rounded=0;entryX=0.5;entryY=1;entryDx=0;entryDy=0;edgeStyle=orthogonalEdgeStyle;exitX=1;exitY=0.5;exitDx=0;exitDy=0;" parent="1" source="95" target="62" edge="1">
                    <mxGeometry relative="1" as="geometry">
                        <mxPoint x="697" y="70" as="sourcePoint"/>
                        <mxPoint x="697" y="70" as="targetPoint"/>
                        <Array as="points">
                            <mxPoint x="670" y="140"/>
                            <mxPoint x="670" y="80"/>
                        </Array>
                    </mxGeometry>
                </mxCell>
                <mxCell id="104" value="1" style="resizable=0;html=1;align=right;verticalAlign=bottom;" parent="102" connectable="0" vertex="1">
                    <mxGeometry x="1" relative="1" as="geometry">
                        <mxPoint x="-10" y="20" as="offset"/>
                    </mxGeometry>
                </mxCell>
                <mxCell id="107" value="" style="endArrow=none;html=1;rounded=0;exitX=1;exitY=1;exitDx=0;exitDy=0;entryX=0;entryY=0.5;entryDx=0;entryDy=0;edgeStyle=orthogonalEdgeStyle;" parent="1" source="61" target="95" edge="1">
                    <mxGeometry relative="1" as="geometry">
                        <mxPoint x="317" y="140" as="sourcePoint"/>
                        <mxPoint x="487" y="260" as="targetPoint"/>
                        <Array as="points">
                            <mxPoint x="367" y="80"/>
                            <mxPoint x="367" y="140"/>
                        </Array>
                    </mxGeometry>
                </mxCell>
                <mxCell id="108" value="1" style="resizable=0;html=1;align=left;verticalAlign=bottom;" parent="107" connectable="0" vertex="1">
                    <mxGeometry x="-1" relative="1" as="geometry"/>
                </mxCell>
                <mxCell id="113" value="ist&lt;br&gt;Klassenleiter" style="shape=rhombus;perimeter=rhombusPerimeter;whiteSpace=wrap;html=1;align=center;" parent="1" vertex="1">
                    <mxGeometry y="180" width="120" height="60" as="geometry"/>
                </mxCell>
                <mxCell id="116" value="" style="endArrow=none;html=1;rounded=0;edgeStyle=orthogonalEdgeStyle;entryX=0.5;entryY=1;entryDx=0;entryDy=0;" parent="1" source="64" target="113" edge="1">
                    <mxGeometry relative="1" as="geometry">
                        <mxPoint x="37" y="320" as="sourcePoint"/>
                        <mxPoint x="60" y="250" as="targetPoint"/>
                        <Array as="points">
                            <mxPoint x="60" y="320"/>
                        </Array>
                    </mxGeometry>
                </mxCell>
                <mxCell id="117" value="1" style="resizable=0;html=1;align=left;verticalAlign=bottom;" parent="116" connectable="0" vertex="1">
                    <mxGeometry x="-1" relative="1" as="geometry"/>
                </mxCell>
                <mxCell id="128" value="" style="endArrow=none;html=1;rounded=0;entryX=0.5;entryY=0;entryDx=0;entryDy=0;edgeStyle=orthogonalEdgeStyle;" edge="1" parent="1" source="113" target="61">
                    <mxGeometry relative="1" as="geometry">
                        <mxPoint x="60" y="20" as="sourcePoint"/>
                        <mxPoint x="60" y="20" as="targetPoint"/>
                        <Array as="points">
                            <mxPoint x="60" y="30"/>
                            <mxPoint x="247" y="30"/>
                        </Array>
                    </mxGeometry>
                </mxCell>
                <mxCell id="130" value="1" style="resizable=0;html=1;align=right;verticalAlign=bottom;" connectable="0" vertex="1" parent="128">
                    <mxGeometry x="1" relative="1" as="geometry"/>
                </mxCell>
            </root>
        </mxGraphModel>
    </diagram>
</mxfile>